<?xml version="1.0" encoding="UTF-8"?>
<svg width="80px" height="72px" viewBox="0 0 80 72" version="1.1" xmlns="http://www.w3.org/2000/svg" xmlns:xlink="http://www.w3.org/1999/xlink">
    <!-- Generator: Sketch 50.2 (55047) - http://www.bohemiancoding.com/sketch -->
    <title>export</title>
    <desc>Created with Sketch.</desc>
    <defs></defs>
    <g id="Page-1" stroke="none" stroke-width="1" fill="none" fill-rule="evenodd">
        <g id="export" fill="#0D78F2" fill-rule="nonzero">
            <path d="M79.2813,20.4624 L55.2813,0.4624 C54.6846448,-0.0338087636 53.8549299,-0.140400102 53.1522259,0.188883331 C52.4495218,0.518166763 52.0004914,1.22397146 52,2 L52,12.38 C31.9258,16.9038 20,29.3823 20,46 C20.0004253,46.980893 20.7119157,47.8168198 21.6801359,47.9739842 C22.6483562,48.1311487 23.5877287,47.5631948 23.8984,46.6328 C27.293,36.4409 40.7188,32.4546 52,32.0366 L52,42 C52.0007676,42.7758999 52.4498805,43.4814595 53.1525093,43.8106006 C53.8551382,44.1397417 54.6846909,44.0331633 55.2813,43.5371 L79.2813,23.5371 C79.736758,23.1565138 79.9999806,22.5935384 79.9999806,22 C79.9999806,21.4064616 79.736758,20.8434862 79.2813,20.4629 L79.2813,20.4624 Z" id="Shape"></path>
            <path d="M72,48 C70.9390527,47.9997347 69.9214829,48.4210768 69.1712799,49.1712799 C68.4210768,49.9214829 67.9997347,50.9390527 68,52 L68,64 L8,64 L8,12 L24,12 C26.209139,12 28,10.209139 28,8 C28,5.790861 26.209139,4 24,4 L4,4 C2.93905272,3.99973466 1.9214829,4.42107682 1.17127986,5.17127986 C0.421076818,5.9214829 -0.000265336333,6.93905272 3.82633846e-16,8 L3.82633846e-16,68 C-0.000265336333,69.0609473 0.421076818,70.0785171 1.17127986,70.8287201 C1.9214829,71.5789232 2.93905272,72.0002653 4,72 L72,72 C73.0609473,72.0002653 74.0785171,71.5789232 74.8287201,70.8287201 C75.5789232,70.0785171 76.0002653,69.0609473 76,68 L76,52 C76.0002653,50.9390527 75.5789232,49.9214829 74.8287201,49.1712799 C74.0785171,48.4210768 73.0609473,47.9997347 72,48 Z" id="Shape"></path>
        </g>
    </g>
</svg>