<?xml version="1.0" encoding="UTF-8"?>
<svg width="1099px" height="1067px" viewBox="0 0 1099 1067" version="1.1" xmlns="http://www.w3.org/2000/svg" xmlns:xlink="http://www.w3.org/1999/xlink">
    <!-- Generator: Sketch 50.2 (55047) - http://www.bohemiancoding.com/sketch -->
    <title>EmbeddedAssetsLink Icon</title>
    <desc>Created with Sketch.</desc>
    <defs></defs>
    <g id="Page-1" stroke="none" stroke-width="1" fill="none" fill-rule="evenodd">
        <g id="EmbeddedAssetsLink-Icon">
            <path d="M396.432618,843.953 C396.432617,847.676621 397.901368,869.9823 401.005371,870.953491 C404.109375,871.924683 413.280274,866.601449 417.688477,866.601438 C422.09668,866.601426 435.905274,871.940316 435.905274,874.775266 C435.905274,877.610215 439.911133,909.15516 439.911133,912.24011 C439.911133,915.325059 441.591797,916.801645 444.426758,916.801633 C447.261719,916.801621 467.702149,911.677621 472.012696,911.67761 C476.323242,911.677598 498.990235,920.968637 498.990235,923.727414 C498.990235,926.486192 504.414063,949.808954 506.990235,950.67761 C509.566407,951.546265 514.159295,947.485793 521.053711,945.863159 C528.28982,944.160107 536.814382,944.022342 539.960938,944.022336 C546.105469,944.022325 555.145508,948.830941 559.292969,948.83093 C563.44043,948.830918 562.381348,955.421753 564.283203,958.869507 C566.185059,962.317261 564.516602,970.242548 568.446289,971.753781 C570.889583,972.693395 578.697266,966.70697 582.047364,966.143433 C585.397461,965.579895 588.945082,964.079961 590.678223,964.079956 C595.260254,964.079945 622.644196,955.415902 626.646485,955.415891 C630.648773,955.415879 637.310547,956.610238 637.310547,961.192258 C637.310547,964.272266 635.986696,971.108103 634.532715,975.762943 C633.82366,978.032943 632.402344,978.633833 632.402344,980.245973 C632.402344,982.245123 635.244686,983.256293 636.291016,984.976443 C637.818681,987.487893 638.081027,990.343633 641.270508,990.343623 C644.407911,990.343613 660.498071,963.534731 678.695313,948.83093 C691.667931,938.348748 707.646636,938.515505 711.980469,938.5155 C722.393555,938.515489 734.531251,937.176645 734.53125,940.599485 C734.53125,944.022325 729.373047,951.997934 729.373047,955.460813 C729.373047,958.923692 728.340821,961.247934 730.751953,961.247922 C732.104437,961.247916 743.16342,940.163384 756.935547,925.442258 C767.715609,913.919372 781.858707,909.144414 785.53418,909.144409 C793.905274,909.144398 802.817383,909.965707 802.817383,912.73425 C802.817383,915.502793 801.591797,917.218637 804.175782,917.218625 C805.695038,917.218618 812.41242,901.666642 823.355469,891.784055 C831.024601,884.858119 842.951044,883.566777 845.800782,883.566773 C852.716797,883.566761 856.425535,887.459164 858.267578,887.099485 C861.668457,886.435425 866.220183,867.242349 877.225586,854.48523 C885.255469,845.17724 898.070833,838.960332 901.006836,838.960327 C907.966797,838.960316 907.962891,840.144418 912.110352,840.144406 C916.257813,840.144395 916.525391,834.385623 916.525391,831.215698 C916.525391,823.894412 920.203079,811.293625 930.266175,795.528623 C938.98375,781.871534 952.061524,772.184451 958.610352,772.176636 C965.15918,772.16882 972.176758,774.431527 973.729493,774.431516 C975.282227,774.431504 974.153321,772.326059 974.153321,770.599485 C974.15332,768.872911 970.703126,752.15223 970.703125,747.993039 C970.703125,745.799225 972.195927,722.959717 979.964841,707.951047 C986.924801,694.505202 1000.25,691.503296 1000.25,687.100464 C1000.25,682.697632 991.391601,678.092163 991.391601,671.716672 C991.391601,668.327221 990.554201,662.758981 990.554201,657.461304 C990.554201,652.794154 991.391601,648.270094 991.391601,646.570188 C991.391601,643.272065 993.532581,630.410425 1000.25,619.934445 C1007.15927,609.159265 1018.65039,600.787463 1018.65039,599.135617 C1018.65039,597.364315 1007.37819,592.090417 1001.74951,581.313843 C997.025781,572.269865 997.072261,556.120981 997.072261,552.063355 C997.072261,547.558923 999.379381,533.95272 1003.11816,526.233762 C1006.76044,518.714057 1012.55078,518.69557 1012.55078,516.107297 C1012.55078,513.63685 1006.83008,506.76453 1005.72314,502.121948 C1004.61621,497.479367 1003.11816,476.887293 1003.11816,474.371945 C1003.11816,472.397083 1002.48947,461.547266 1006.27393,452.753296 C1011.60134,440.37394 1021.87988,429.19589 1021.87988,427.532102 C1021.87988,425.991625 1007.36377,421.525757 1001.74951,409.2948 C996.135251,397.063843 995.172851,387.124389 995.172851,376.483274 C995.172851,365.118718 994.607261,357.534928 997.072261,349.079468 C999.639451,340.273515 1005.24023,330.789438 1005.18066,328.826047 C1005.12796,327.088972 973.167463,330.494516 957.78125,317.866086 C941.675036,304.646706 940.898926,278.193238 940.898926,266.469605 C940.898926,258.353446 944.988274,248.27802 948.036133,241.875366 C949.390847,239.029511 951.232422,236.863509 951.232422,235.995969 C951.232422,233.176621 951.232422,232.445191 949.50586,232.445188 C947.779297,232.445185 923.448813,236.354564 909.319336,221.153687 C895.19652,205.959976 891.34375,177.472528 891.34375,169.410031 C891.34375,161.347534 895.674317,153.657102 894.286133,151.258667 C892.89795,148.860233 856.354493,163.989133 836.292969,164.062375 C828.570182,164.09057 814.955998,162.962312 808.365906,156.069593 C797.836881,145.057059 798.604493,104.368039 793.965821,104.368039 C789.327149,104.368039 770.90625,107.502805 762.727539,107.51355 C754.548829,107.524295 732.018555,105.977906 719.823243,94.0765378 C713.42292,87.8304828 714.166993,83.3905028 707.017579,75.9144288 C699.868164,68.4383545 698.559082,70.1733246 693.023438,64.0765381 C687.487793,57.9797516 684.820718,52.3087461 682.683594,52.2362031 C676.929688,52.0408914 662.802735,58.8397187 662.802735,62.2928437 C662.802735,65.7459687 664.018555,69.5672578 664.018555,72.1512422 C664.018555,74.7352268 654.171876,88.7733128 648.427735,88.7733128 C642.683594,88.7733128 630.135743,85.7654998 625.94336,85.7654998 C621.750977,85.7654998 593.343751,76.9276098 588.533203,76.9276098 C583.722656,76.9276098 552.992188,52.4315156 545.012696,52.4315156 C537.033203,52.4315156 521.053712,65.6268281 521.053711,71.2772187 C521.053711,76.1677768 516.575501,85.7420628 503.955898,85.4647478 C491.336295,85.1874338 480.870838,88.2658498 464.546875,85.7420628 C445.000935,82.7201378 424.88004,74.7410858 421.827149,74.7410858 C416.22461,74.7410858 408.254883,81.4783908 408.254883,85.1258518 C408.254883,88.7733128 409.004883,87.4490938 409.004883,90.6414768 C409.004883,93.8338598 386.876954,107.513547 381.78418,107.513547 C376.691406,107.513547 369.745118,109.782102 367.583985,109.782102 C365.422852,109.782102 358.69043,114.971555 355.682618,114.971555 C352.674805,114.971555 326.675782,134.41882 323.733399,134.41882 C320.791016,134.41882 313.569336,135.874875 313.569336,138.545774 C313.569336,141.216672 315.665039,146.665891 315.665039,151.258664 C315.665039,155.851438 314.1875,162.245969 309.171875,162.245969 C304.15625,162.245969 242.5625,216.548703 242.5625,224.496945 C242.5625,232.445188 243.399414,221.989133 243.399414,235.192258 C243.399414,238.67175 227.901368,260.617063 210.402344,260.617063 C203.120118,260.617063 201.973633,262.757688 200.5,266.29382 C199.026368,269.829953 197.837891,270.267453 193.680664,270.267453 C189.523438,270.267453 186.275391,269.829953 186.275391,285.725461 C186.275391,291.922301 180.821004,296.605227 178.128907,301.285031 C173.915507,308.609389 171.549321,314.414914 169.723633,314.414914 C167.95018,314.414914 162.106446,314.688352 162.106446,322.820188 C162.106446,326.041867 159.767366,324.907855 159.496094,326.041867 C158.830079,328.826047 163.44043,335.29968 163.44043,339.827024 C163.44043,361.79968 150.293946,376.994016 150.293946,380.381711 C150.293946,383.769406 138.950196,385.634641 138.950196,394.76843 C138.950196,403.902219 140.606446,401.031125 140.606446,406.147336 C140.606446,430.063352 118.53418,454.363156 116.992188,458.782102 C116.460985,460.304389 114.223633,472.048703 114.223633,472.048703 C114.223633,472.048703 104.72168,497.975081 104.72168,499.960813 C104.72168,502.99011 100.227539,514.540891 100.227539,521.119992 C100.227539,524.720823 99.4963676,530.701385 97.1230466,535.069211 C95.1600586,538.681869 91.4765626,540.633376 91.4765626,544.195188 C91.4765626,552.063352 91.1559466,563.155235 89.4091796,570.379758 C88.3788606,574.641095 85.5263676,574.378672 85.5263676,576.29675 C85.5263676,581.466672 86.6562496,580.368039 96.5371096,580.368039 C103.551758,580.368039 119.09375,606.750852 119.09375,615.45886 C119.09375,624.166867 116.992188,622.54968 116.992188,636.545774 C116.992188,650.541867 171.334961,693.882688 172.549805,740.572141 C172.786268,749.660011 173.696983,760.238322 163.44043,773.223508 C157.640625,780.566281 149.238282,776.670774 149.545899,771.399289 C150.240631,759.494009 156.295899,757.431516 156.295899,747.297727 C156.295899,737.163938 140.606446,707.951047 123.34668,707.951047 C120.328125,707.951047 119.09375,736.869016 119.09375,740.572141 C119.09375,744.275266 111.407227,758.722531 111.526368,773.223508 C111.645508,787.724485 129.828125,817.627805 133.511719,821.318235 C137.195313,825.008664 153.406337,832.612109 160.16211,835.942258 C179.717774,845.581906 195.117188,855.780149 205.268555,867.04382 C215.419922,878.307492 230.617188,894.815305 230.617188,913.800656 C230.617188,932.786008 217.364258,940.635617 217.364258,955.11511 L217.364258,964.079953 C217.364258,966.328 218.112305,970.971555 211.642578,978.249873 C208.469458,981.819573 193.680664,991.268433 182.69336,996.102413 C171.706055,1000.9364 155.230147,1000.38757 150.293946,1000.38757 C140.606446,1000.38757 131.656284,990.487183 130.359375,990.487183 C128.230469,990.487183 108.634766,991.268433 108.634766,977.362183 C108.634766,972.005735 108.634766,972.005735 113.119141,971.82507 C150.332176,970.325852 175.248703,954.298703 176.227539,927.154172 C176.732322,913.155815 166.731446,878.307492 127.309571,878.307492 C87.8876956,878.307492 58.2109375,859.916867 33.6347656,817.861203 C9.0585937,775.805539 0,717.816358 0,695.415891 C0,650.047727 21.2294082,613.148069 43.1820869,596.758054 C50.1295996,591.570995 49.7927742,589.618042 55.1166687,589.618042 C59.3439369,589.618042 72.6933594,579.179399 72.6933594,576.61218 C72.6933594,569.214295 63.093132,572.225647 63.0439911,556.489136 C63.0211745,549.182529 66.0902328,547.269473 66.0902328,541.564026 C66.0902328,535.858579 62.3870764,532.718676 65.1347656,526.233762 C67.8860974,519.740251 76.1328125,515.22815 76.1328125,511.938352 C76.1328125,508.648554 68.7880859,489.157102 68.7880859,484.130735 C68.7880859,479.104367 71.8007812,466.792844 73.9667969,466.792844 C76.1328125,466.792844 76.3222656,472.048703 79.243164,472.048703 C82.1640626,472.048703 82.2724606,467.369992 82.2724606,461.409055 C82.2724606,455.448117 76.9091797,452.428498 76.9091797,443.636594 C76.9091797,434.84469 74.1910438,423.049367 79.243164,412.392545 C84.0182076,402.320183 97.1230466,397.477466 97.1230466,394.534055 C97.1230466,388.476438 95.7852016,389.358246 95.7852016,370.448334 C95.7852016,361.058959 98.4509196,354.522217 98.4509146,350.674603 C98.4509096,346.826989 101.551143,344.915344 102.316002,344.915344 C109.248543,344.915344 115.450196,339.761329 115.450196,335.29968 C115.450196,328.826047 111.526368,309.153195 111.526368,306.221555 C111.526368,303.289914 116.682618,280.188352 120.558594,280.188352 C124.434571,280.188352 129.364258,285.725461 133.511719,285.725461 C137.65918,285.725461 137.195313,284.553583 137.195313,269.829953 C137.195313,255.106323 149.238282,237.70593 149.238282,234.566281 C149.238282,231.426633 146.483399,228.223508 150.293946,228.223508 C154.104493,228.223508 159.111451,233.176621 160.751099,233.176621 C162.390747,233.176621 166.071106,225.976441 169.063294,225.976441 C172.055481,225.976441 180.257813,222.036985 180.257813,219.386594 C180.257813,216.736203 177.407547,216.112808 177.407547,210.694214 C177.407547,204.008136 204.562012,151.258667 210.402344,151.258667 C216.242676,151.258667 216.825943,163.989136 221.657975,163.989136 C223.331106,163.989136 238.996781,159.593308 245.31221,147.327576 C263.219232,112.548829 263.931641,116.483271 283.16211,95.6121798 C302.392579,74.7410888 330.388733,70.1733246 337.833863,70.1733246 C345.278992,70.1733246 348.481446,78.7821018 350.38086,78.7821018 C352.270691,78.7821018 385.740448,15.6501873 432.335444,15.6501875 C442.236054,15.6501875 454.126709,14.4093867 460.733521,24.331688 C472.774206,42.4147383 465.815909,38.800745 481.688111,27.5540448 C515.00885,3.943687 550.062833,0 558.361878,0 C572.165589,0 585.289124,6.0576023 600.306519,6.0576023 C615.323914,6.0576023 617.463013,21.3309297 620.790162,21.3309297 C624.11731,21.3309297 642.71875,9.1385469 662.741211,9.1385469 C682.763672,9.1385469 689.27887,10.5530786 714.767945,21.3309297 C740.257019,32.1087808 748.235352,45.4207658 752.766602,54.1543817 C754.862533,58.1941177 756.935547,56.0332879 756.935547,54.1543817 C756.935547,52.2754754 752.766602,41.0115937 752.766602,39.0819062 C752.766602,37.1522187 760.22461,32.9920625 774.217774,32.9920625 C788.210938,32.9920625 796.677302,37.9782329 813.820374,55.1981134 C825.778948,67.2102671 840.891846,93.6238828 842.639283,99.5605138 C844.386719,105.497144 849.708006,104.368039 850.28302,104.368039 C853.486145,104.368039 845.800782,87.8924528 845.800782,85.7420628 C845.800782,83.5916718 854.441407,82.7235078 856.354493,82.7235078 C857.353951,82.7235078 879.419495,85.0031228 896.283936,95.6121798 C911.700104,105.310159 917.272278,118.306264 923.270203,125.359624 C929.268128,132.412984 935.404297,156.605344 935.404297,160.08093 C935.404297,163.556516 933.583985,163.989133 937.110352,163.989133 C938.743809,163.989133 961.760415,165.014252 979.964841,180.041867 C1001.06081,197.456423 1017.0556,223.115125 1017.0556,240.091153 C1017.0556,257.067182 1016.54004,258.219602 1018.65039,258.219602 C1024.43079,258.219602 1033.38788,258.64828 1044.12634,266.469602 C1056.78622,275.690382 1068.12768,292.158078 1070.84656,300.580533 C1073.56543,309.002988 1077.33167,318.126119 1073.16211,335.29968 C1068.62885,353.97124 1050.64355,367.142148 1050.64355,371.321012 C1050.64355,375.499875 1063.51007,381.797666 1074.21973,396.196805 C1086.52715,412.744137 1097.36344,433.888104 1097.7428,444.758878 C1097.8382,447.492684 1098.62899,452.90374 1097.03332,457.609494 C1094.53552,464.975716 1088.908,471.03861 1085.1792,475.378293 C1082.50602,478.489409 1081.68115,481.839938 1079.59302,483.211667 C1076.98916,484.922187 1073.40003,484.468109 1073.16211,487.211789 C1072.97731,489.342867 1077.10145,494.728823 1080.5332,501.312467 C1085.06285,510.002378 1089.2478,520.553728 1089.2478,526.233762 C1089.2478,536.217099 1086.04164,544.475468 1080.5332,552.063352 C1072.36037,563.321458 1057.82519,568.209409 1057.18909,576.61218 C1056.92663,580.079133 1061.01608,581.068921 1062.77966,583.469907 C1065.29043,586.888133 1066.84862,591.038816 1068.12768,591.038816 C1070.30518,591.038816 1074.9668,590.278195 1074.9668,583.469907 C1074.9668,576.661618 1077.11925,568.231063 1077.40234,570.379758 C1077.90748,574.213779 1082.12984,577.433878 1085.82397,582.757016 C1090.6983,589.780767 1095.24341,599.258992 1094.96094,606.692258 C1094.09697,629.427616 1074.81226,650.847159 1074.21973,651.353391 C1070.57226,654.469602 1058.99402,663.743466 1058.99402,667.436826 C1058.99402,671.130185 1072.7334,681.263547 1072.7334,688.339719 C1072.7334,691.798454 1079.59607,707.428708 1079.59302,715.633725 C1079.58997,723.838742 1074.62537,738.865415 1064.46204,738.865415 C1060.50762,738.865415 1056.19983,747.297727 1051.70251,747.993039 C1047.2052,748.688352 1036.35547,753.549874 1036.35547,756.983091 C1036.35547,762.602903 1042.63525,774.431516 1042.63525,785.873471 C1042.63525,797.315427 1039.55371,803.754453 1028.65478,816.385984 C1017.75586,829.017514 998.769071,842.212766 997.072261,842.212766 C993.956051,842.212766 983.827151,847.715695 983.827151,850.723508 C983.827151,853.73132 986.367191,866.38757 986.367191,869.982297 C986.367191,871.407444 989.255221,889.48187 971.72937,904.253842 C954.203515,919.025815 936.584961,921.422727 927.61847,921.422727 C918.651978,921.422727 914.566407,918.751828 912.579102,918.751828 C910.591797,918.751828 904.256653,959.387265 897.966797,959.387265 C895.240989,959.387265 894.404297,962.613156 891.34375,965.579892 C888.283203,968.546628 881.810887,971.82507 875.259766,971.82507 C863.698304,971.82507 866.228455,975.762933 858.267579,975.762933 C850.306702,975.762933 846.353516,969.594602 844.386719,969.594602 C842.419922,969.594602 840.87793,974.687373 840.87793,978.661003 C840.87793,980.299533 840.850627,990.249243 836.292969,996.102413 C829.797711,1004.44394 817.632447,1009.09265 813.820374,1009.09265 C807.195618,1009.09265 811.309693,1004.52136 804.38086,1004.52136 C801.265908,1004.52136 793.230042,1009.09265 788.210938,1009.09265 C783.191834,1009.09265 777.787158,1011.1278 776.124024,1011.1278 C773.102539,1011.1278 771.735108,1009.09265 770.08368,1011.1278 C768.432251,1013.16296 771.224671,1012.59973 768.903748,1015.94024 C766.582825,1019.28076 762.86969,1024.02923 760.984314,1026.04675 C759.098938,1028.06426 758.582337,1026.04675 755.764527,1028.49694 C752.946717,1030.94714 751.16113,1033.6737 748.235352,1033.6737 L729.373047,1033.6737 C724.214844,1033.6737 722.007181,1036.54968 719.823243,1036.54968 C714.373658,1036.54968 707.066407,1028.49694 699.868164,1028.49694 C694.820313,1028.49694 694.820313,1032.76159 694.820313,1035.27038 C694.820313,1037.77917 686.024414,1049.17907 682.140625,1053.0321 C680.02105,1055.13489 670.921875,1061.91516 664.570056,1061.9152 C658.218237,1061.91525 651.67891,1066.3695 648.427735,1066.3695 C641.270508,1066.3695 632.402344,1060.23327 622.986329,1060.23327 C613.570313,1060.23327 622.013672,1065.34167 601.083008,1065.34167 C580.152344,1065.34167 569.000977,1053.91003 562.496094,1053.91003 C555.991211,1053.91003 546.520508,1042.96472 542.20459,1041.3988 C537.888672,1039.83288 533.438885,1030.36804 532.452149,1030.36804 C529.669922,1030.36804 528.208496,1032.52429 528.208496,1039.83288 C528.208496,1047.14147 518.370606,1050.86608 509.566407,1050.86608 C500.762207,1050.86608 484.388184,1042.08874 472.012696,1028.49694 C459.637207,1014.90515 460.353028,1000.98718 451.355469,1000.98718 C442.357911,1000.98718 430.054688,991.648803 426.388672,991.648803 C420.105469,991.648803 408.254883,980.245973 408.254883,974.041383 C408.254883,967.836789 395.615235,958.703488 395.615235,954.298703 C395.615235,949.284953 392.793457,927.753293 390.34961,924.76257 C387.905762,921.771848 386.564127,921.422727 385.029297,921.422727 C379.518555,921.422727 379.108369,925.121899 371.731446,925.442258 C357.586914,926.056516 346.277344,900.869992 346.277344,896.590695 C346.277344,892.311399 349.219727,889.965695 349.219727,884.136594 C349.219727,878.307492 344.19336,876.659055 344.19336,868.536008 C344.19336,860.412961 343.105469,867.04382 333.92627,867.04382 C324.747071,867.04382 315.6875,836.33093 315.6875,834.069211 C315.6875,831.807492 317.337891,833.169797 317.337891,817.861203 C317.337891,802.55261 396.432618,840.229379 396.432618,843.953 L396.432618,843.953 Z" id="hair" fill="#C7C7C7"></path>
            <g id="Group" transform="translate(232.000000, 155.000000)" fill="#000000" fill-rule="nonzero">
                <path d="M685.795389,206.330625 L478.595322,4.66509491 C473.444197,-0.338315249 466.280989,-1.41310518 460.214309,1.90715071 C454.147629,5.22740661 450.270999,12.3442305 450.266756,20.1691409 L450.266756,124.833551 C276.95944,170.448277 174,296.272443 174,463.833307 C174.003672,473.723922 180.146207,482.152803 188.505178,483.737535 C196.86415,485.322268 204.974068,479.595432 207.656198,470.214004 C236.96292,367.446258 352.872365,327.251293 450.266756,323.036484 L450.266756,423.500201 C450.273383,431.323814 454.150725,438.438166 460.216756,441.756987 C466.282788,445.075808 473.444595,444.001148 478.595322,438.999205 L685.795389,237.333675 C689.72751,233.496119 692,227.819482 692,221.834671 C692,215.849859 689.72751,210.173222 685.795389,206.335666 L685.795389,206.330625 Z" id="Shape"></path>
                <path d="M622.421052,483.882353 C613.249442,483.879676 604.452818,488.130275 597.967511,495.698499 C591.482203,503.266724 587.839811,513.532208 587.842104,524.235294 L587.842104,645.294117 L69.1578956,645.294117 L69.1578956,120.705883 L207.473685,120.705883 C226.57111,120.705883 242.052632,102.639256 242.052632,80.3529423 C242.052632,58.0666284 226.57111,40.0000013 207.473685,40.0000013 L34.5789483,40.0000013 C25.4073383,39.9973245 16.610715,44.2479233 10.1254072,51.816148 C3.64009935,59.3843728 -0.00229268007,69.6498565 1.08270013e-06,80.3529423 L1.08270013e-06,685.647058 C-0.00229268007,696.350143 3.64009935,706.615627 10.1254072,714.183852 C16.610715,721.752077 25.4073383,726.002676 34.5789483,725.999999 L622.421052,725.999999 C631.592662,726.002676 640.389285,721.752077 646.874593,714.183852 C653.359901,706.615627 657.002293,696.350143 656.999999,685.647058 L656.999999,524.235294 C657.002293,513.532208 653.359901,503.266724 646.874593,495.698499 C640.389285,488.130275 631.592662,483.879676 622.421052,483.882353 Z" id="Shape"></path>
            </g>
        </g>
    </g>
</svg>